# xmcd
#
# Track frame offsets: 
#        150
#        30930
#        62793
#        100038
#        118106
#        143858
#        170222
#        195140
#        223881
#
# Disc length: 3237 seconds
#
# Revision: 0
# Processed by: cddbd v1.5.2PL0 Copyright (c) Steve Scherf et al.
# Submitted via: ExactAudioCopyFreeDBPlugin 1.0
#
DISCID=7d0ca309
DTITLE=Astor Piazzolla, Robert Di Marino - sensations
DYEAR=2014
DGENRE=Classical
TTITLE0=Concerto for Bandoneon and String Orchestra 1 Adagio-Allegro
TTITLE1=Concerto for Bandoneon and String Orchestra 2 Adagio
TTITLE2=Concerto for Bandoneon and String Orchestra 3 Presto
TTITLE3=Oblivion
TTITLE4=Five Tango Sensations 5 Asleep
TTITLE5=Five Tango Sensations 6 Loving
TTITLE6=Five Tango Sensations 7 Anxiety
TTITLE7=Five Tango Sensations 8 Despertar
TTITLE8=Five Tango Sensations 9 Fear
EXTD=
EXTT0=
EXTT1=
EXTT2=
EXTT3=
EXTT4=
EXTT5=
EXTT6=
EXTT7=
EXTT8=
PLAYORDER=
